# xmcd
#
# Track frame offsets:
#	150
#	18294
#	32909
#	46026
#	65775
#	81517
#	96718
#	116255
#	129287
#	148439
#	165311
#	184251
#
# Disc length: 2694 seconds
#
# Revision: 2
# Processed by: cddbd v1.4PL0 Copyright (c) Steve Scherf et al.
# Submitted via: OrangeCD 4.1
#
DISCID=a80a840c
DTITLE=Freddie King - Getting Ready...
DYEAR=1900
DGENRE=
TTITLE0=Same Old Blues
TTITLE1=Dust My Broom
TTITLE2=Worried Life Blues
TTITLE3=Five Long Years
TTITLE4=Key To The Highway
TTITLE5=Going Down
TTITLE6=Living On The Highway
TTITLE7=Walking By Myself
TTITLE8=Tore Down
TTITLE9=Palace Of The King
TTITLE10=Gimme Some Lovin' (Prev. Unreleased)
TTITLE11=Send Me Someone To Love (Prev. Unreleased)
EXTD=
EXTT0=
EXTT1=
EXTT2=
EXTT3=
EXTT4=
EXTT5=
EXTT6=
EXTT7=
EXTT8=
EXTT9=
EXTT10=
EXTT11=
PLAYORDER=
